<svg xmlns="http://www.w3.org/2000/svg" width="150" height="50" viewBox="0 0 209.394 53.568"><g transform="translate(-889.352 -178.139)"><path d="M966.314,212.111l2.734-3.135a7.324,7.324,0,0,0,6.4,3.569c2.234,0,3.768-1.234,3.768-2.868q0-1.651-2.3-2.8c-.334-.167-1.134-.5-2.434-1a24.951,24.951,0,0,1-2.9-1.367c-2.568-1.5-3.868-3.534-3.868-6.068a6.449,6.449,0,0,1,2.268-5.035,8.411,8.411,0,0,1,5.9-2.034,10.224,10.224,0,0,1,7.9,3.4l-2.534,3.267a7.385,7.385,0,0,0-5.3-2.4c-2,0-3.335,1.034-3.335,2.6,0,1.033.667,1.9,2.034,2.6l2.6,1.2c1.366.567,2.334,1.034,2.934,1.334,2.7,1.367,4.067,3.4,4.067,6.035a6.671,6.671,0,0,1-2.467,5.335,9.621,9.621,0,0,1-6.369,2.068A10.633,10.633,0,0,1,966.314,212.111Z" fill="#1E1E9A"></path><path d="M1004.224,200.641a9.478,9.478,0,0,1,2.534,6.7,9.613,9.613,0,0,1-2.568,6.768,8.344,8.344,0,0,1-6.4,2.735,7.455,7.455,0,0,1-5.834-2.7v9.7h-4.369V198.306h4.335v2.4a7.325,7.325,0,0,1,5.9-2.834A8.379,8.379,0,0,1,1004.224,200.641Zm-10.9,10.67a5.393,5.393,0,0,0,7.6,0,5.639,5.639,0,0,0,1.467-3.935,5.5,5.5,0,0,0-1.467-3.9,5.315,5.315,0,0,0-7.6,0,5.963,5.963,0,0,0,0,7.836Z" fill="#1E1E9A"></path><path d="M1011.891,200.607a9.425,9.425,0,0,1,6.969-2.767,9.3,9.3,0,0,1,6.935,2.767,9.129,9.129,0,0,1,2.735,6.736,9.349,9.349,0,0,1-9.67,9.536,9.3,9.3,0,0,1-9.669-9.536A9.232,9.232,0,0,1,1011.891,200.607Zm10.737,2.868a5.237,5.237,0,0,0-7.536,0,5.688,5.688,0,0,0,0,7.769,5.237,5.237,0,0,0,7.536,0,5.685,5.685,0,0,0,0-7.769Z" fill="#1E1E9A"></path><path d="M1044.433,215.345a8.971,8.971,0,0,1-5.235,1.5c-4.1,0-6.2-2.435-6.2-7.069v-7.8h-3v-3.669h3.068v-6.4h4.3v6.4h6.069v3.669h-6.069v7.635c0,2.167.867,3.268,2.635,3.268a5.841,5.841,0,0,0,3.067-.934Z" fill="#1E1E9A"></path><path d="M1064.5,191.771c2.834,0,4.935.8,6.368,2.367a8.051,8.051,0,0,1,2.134,5.669,7.663,7.663,0,0,1-2.234,5.635c-1.467,1.5-3.667,2.267-6.635,2.267h-4v8.7H1055.6V191.771Zm-.234,11.77c2.668,0,4.1-1.7,4.1-3.8a3.561,3.561,0,0,0-3.768-3.735h-4.468v7.535Z" fill="#1E1E9A"></path><path d="M1078.873,213.278a12.135,12.135,0,0,1-3.635-9.1,12.283,12.283,0,0,1,3.7-9.2,12.453,12.453,0,0,1,9.036-3.634,12.956,12.956,0,0,1,10.6,5.168l-3.1,2.967a9.037,9.037,0,0,0-7.3-3.734,8,8,0,0,0-5.869,2.4,8.272,8.272,0,0,0-2.367,6.035,7.982,7.982,0,0,0,8.2,8.236,8.968,8.968,0,0,0,7.435-3.735l3.168,2.868a13.513,13.513,0,0,1-10.837,5.235A12.588,12.588,0,0,1,1078.873,213.278Z" fill="#1E1E9A"></path><path d="M895.538,214.341h8.791a26.826,26.826,0,0,1,.983-21.125h-9.774Z" fill="none"></path><path d="M929.406,178.139a26.717,26.717,0,0,0-19.926,8.89h24.005a4.126,4.126,0,0,1,4.12,4.12v25.259a4.125,4.125,0,0,1-4.12,4.12H907.644a26.782,26.782,0,1,0,21.762-42.389Z" fill="#ffc022"></path><path d="M904.329,214.341h27.089V193.216H905.312a26.826,26.826,0,0,0-.983,21.125Z" fill="#ffc022"></path><path d="M895.538,214.341V193.216h9.774a26.835,26.835,0,0,1,4.168-6.187H893.472a4.125,4.125,0,0,0-4.12,4.12v25.259a4.124,4.124,0,0,0,4.12,4.12h14.172a26.729,26.729,0,0,1-3.315-6.187Z" fill="#ffc022"></path></g></svg>